<svg id="visual" viewBox="0 0 1920 320" width="1920" height="320" xmlns="http://www.w3.org/2000/svg" xmlns:xlink="http://www.w3.org/1999/xlink" version="1.1"><rect x="0" y="0" width="1920" height="320" fill="#001220"></rect><path d="M0 9L53.3 22C106.7 35 213.3 61 320 71.2C426.7 81.3 533.3 75.7 640 69.8C746.7 64 853.3 58 960 50.7C1066.7 43.3 1173.3 34.7 1280 40C1386.7 45.3 1493.3 64.7 1600 61.2C1706.7 57.7 1813.3 31.3 1866.7 18.2L1920 5L1920 321L1866.7 321C1813.3 321 1706.7 321 1600 321C1493.3 321 1386.7 321 1280 321C1173.3 321 1066.7 321 960 321C853.3 321 746.7 321 640 321C533.3 321 426.7 321 320 321C213.3 321 106.7 321 53.3 321L0 321Z" fill="#2a2a72"></path><path d="M0 79L53.3 82.5C106.7 86 213.3 93 320 103.7C426.7 114.3 533.3 128.7 640 131.8C746.7 135 853.3 127 960 121.8C1066.7 116.7 1173.3 114.3 1280 119.8C1386.7 125.3 1493.3 138.7 1600 134.2C1706.7 129.7 1813.3 107.3 1866.7 96.2L1920 85L1920 321L1866.7 321C1813.3 321 1706.7 321 1600 321C1493.3 321 1386.7 321 1280 321C1173.3 321 1066.7 321 960 321C853.3 321 746.7 321 640 321C533.3 321 426.7 321 320 321C213.3 321 106.7 321 53.3 321L0 321Z" fill="#2e4595"></path><path d="M0 189L53.3 188.7C106.7 188.3 213.3 187.7 320 178.3C426.7 169 533.3 151 640 152.8C746.7 154.7 853.3 176.3 960 188.2C1066.7 200 1173.3 202 1280 193C1386.7 184 1493.3 164 1600 155.7C1706.7 147.3 1813.3 150.7 1866.7 152.3L1920 154L1920 321L1866.7 321C1813.3 321 1706.7 321 1600 321C1493.3 321 1386.7 321 1280 321C1173.3 321 1066.7 321 960 321C853.3 321 746.7 321 640 321C533.3 321 426.7 321 320 321C213.3 321 106.7 321 53.3 321L0 321Z" fill="#2d62b8"></path><path d="M0 219L53.3 224.8C106.7 230.7 213.3 242.3 320 245.8C426.7 249.3 533.3 244.7 640 233.3C746.7 222 853.3 204 960 196.2C1066.7 188.3 1173.3 190.7 1280 197C1386.7 203.3 1493.3 213.7 1600 215.5C1706.7 217.3 1813.3 210.7 1866.7 207.3L1920 204L1920 321L1866.7 321C1813.3 321 1706.7 321 1600 321C1493.3 321 1386.7 321 1280 321C1173.3 321 1066.7 321 960 321C853.3 321 746.7 321 640 321C533.3 321 426.7 321 320 321C213.3 321 106.7 321 53.3 321L0 321Z" fill="#2480db"></path><path d="M0 270L53.3 276C106.7 282 213.3 294 320 293.2C426.7 292.3 533.3 278.7 640 277.3C746.7 276 853.3 287 960 288.5C1066.7 290 1173.3 282 1280 269.8C1386.7 257.7 1493.3 241.3 1600 247.7C1706.7 254 1813.3 283 1866.7 297.5L1920 312L1920 321L1866.7 321C1813.3 321 1706.7 321 1600 321C1493.3 321 1386.7 321 1280 321C1173.3 321 1066.7 321 960 321C853.3 321 746.7 321 640 321C533.3 321 426.7 321 320 321C213.3 321 106.7 321 53.3 321L0 321Z" fill="#009ffd"></path></svg>